<svg width="820" height="220" viewBox="0 0 820 220" fill="none" xmlns="http://www.w3.org/2000/svg">
  <path
    d="M20 20V17.5H17.5V20H20ZM170 20H172.5V17.5H170V20ZM170 45H167.5V47.5H170V45ZM195 45H197.5V42.5H195V45ZM195 95V97.5H197.5V95H195ZM170 95V92.5H167.5V95H170ZM170 120H167.5V122.5H170V120ZM195 120H197.5V117.5H195V120ZM195 170V172.5H197.5V170H195ZM170 170V167.5H167.5V170H170ZM170 195V197.5H172.5V195H170ZM20 195H17.5V197.5H20V195ZM145 45H147.5V42.5H145V45ZM70 45V42.5H67.5V45H70ZM70 95H67.5V97.5H70V95ZM145 95V97.5H147.5V95H145ZM145 120H147.5V117.5H145V120ZM70 120V117.5H67.5V120H70ZM70 170H67.5V172.5H70V170ZM145 170V172.5H147.5V170H145ZM22.5 107.5V20H17.5V107.5H22.5ZM20 22.5H95V17.5H20V22.5ZM95 22.5H170V17.5H95V22.5ZM167.5 20V32.5H172.5V20H167.5ZM167.5 32.5V45H172.5V32.5H167.5ZM170 47.5H182.5V42.5H170V47.5ZM182.5 47.5H195V42.5H182.5V47.5ZM192.5 45V70H197.5V45H192.5ZM192.5 70V95H197.5V70H192.5ZM195 92.5H182.5V97.5H195V92.5ZM182.5 92.5H170V97.5H182.5V92.5ZM167.5 95V107.5H172.5V95H167.5ZM167.5 107.5V120H172.5V107.5H167.5ZM170 122.5H182.5V117.5H170V122.5ZM182.5 122.5H195V117.5H182.5V122.5ZM192.5 120V145H197.5V120H192.5ZM192.5 145V170H197.5V145H192.5ZM195 167.5H182.5V172.5H195V167.5ZM182.5 167.5H170V172.5H182.5V167.5ZM167.5 170V182.5H172.5V170H167.5ZM167.5 182.5V195H172.5V182.5H167.5ZM170 192.5H95V197.5H170V192.5ZM95 192.5H20V197.5H95V192.5ZM22.5 195V107.5H17.5V195H22.5ZM147.5 70V45H142.5V70H147.5ZM145 42.5H107.5V47.5H145V42.5ZM107.5 42.5H70V47.5H107.5V42.5ZM67.5 45V70H72.5V45H67.5ZM67.5 70V95H72.5V70H67.5ZM70 97.5H107.5V92.5H70V97.5ZM107.5 97.5H145V92.5H107.5V97.5ZM147.5 95V70H142.5V95H147.5ZM147.5 145V120H142.5V145H147.5ZM145 117.5H107.5V122.5H145V117.5ZM107.5 117.5H70V122.5H107.5V117.5ZM67.5 120V145H72.5V120H67.5ZM67.5 145V170H72.5V145H67.5ZM70 172.5H107.5V167.5H70V172.5ZM107.5 172.5H145V167.5H107.5V172.5ZM147.5 170V145H142.5V170H147.5ZM245 20V17.5H242.5V20H245ZM345 20H347.5V17.5H345V20ZM345 45H342.5V47.5H345V45ZM370 45H372.5V42.5H370V45ZM370 70V72.5H372.5V70H370ZM320 70H317.5V72.5H320V70ZM320 45H322.5V42.5H320V45ZM270 45V42.5H267.5V45H270ZM270 95H267.5V97.5H270V95ZM370 95H372.5V92.5H370V95ZM370 120H367.5V122.5H370V120ZM395 120H397.5V117.5H395V120ZM395 170V172.5H397.5V170H395ZM370 170V167.5H367.5V170H370ZM370 195V197.5H372.5V195H370ZM245 195H242.5V197.5H245V195ZM245 170H247.5V167.5H245V170ZM220 170H217.5V172.5H220V170ZM220 145V142.5H217.5V145H220ZM270 145H272.5V142.5H270V145ZM270 170H267.5V172.5H270V170ZM345 170V172.5H347.5V170H345ZM345 120H347.5V117.5H345V120ZM245 120H242.5V122.5H245V120ZM245 95H247.5V92.5H245V95ZM220 95H217.5V97.5H220V95ZM220 45V42.5H217.5V45H220ZM245 45V47.5H247.5V45H245ZM247.5 32.5V20H242.5V32.5H247.5ZM245 22.5H295V17.5H245V22.5ZM295 22.5H345V17.5H295V22.5ZM342.5 20V32.5H347.5V20H342.5ZM342.5 32.5V45H347.5V32.5H342.5ZM345 47.5H357.5V42.5H345V47.5ZM357.5 47.5H370V42.5H357.5V47.5ZM367.5 45V57.5H372.5V45H367.5ZM367.5 57.5V70H372.5V57.5H367.5ZM370 67.5H345V72.5H370V67.5ZM345 67.5H320V72.5H345V67.5ZM322.5 70V57.5H317.5V70H322.5ZM322.5 57.5V45H317.5V57.5H322.5ZM320 42.5H295V47.5H320V42.5ZM295 42.5H270V47.5H295V42.5ZM267.5 45V70H272.5V45H267.5ZM267.5 70V95H272.5V70H267.5ZM270 97.5H320V92.5H270V97.5ZM320 97.5H370V92.5H320V97.5ZM367.5 95V107.5H372.5V95H367.5ZM367.5 107.5V120H372.5V107.5H367.5ZM370 122.5H382.5V117.5H370V122.5ZM382.5 122.5H395V117.5H382.5V122.5ZM392.5 120V145H397.5V120H392.5ZM392.5 145V170H397.5V145H392.5ZM395 167.5H382.5V172.5H395V167.5ZM382.5 167.5H370V172.5H382.5V167.5ZM367.5 170V182.5H372.5V170H367.5ZM367.5 182.5V195H372.5V182.5H367.5ZM370 192.5H307.5V197.5H370V192.5ZM307.5 192.5H245V197.5H307.5V192.5ZM247.5 195V182.5H242.5V195H247.5ZM247.5 182.5V170H242.5V182.5H247.5ZM245 167.5H232.5V172.5H245V167.5ZM232.5 167.5H220V172.5H232.5V167.5ZM222.5 170V157.5H217.5V170H222.5ZM222.5 157.5V145H217.5V157.5H222.5ZM220 147.5H245V142.5H220V147.5ZM245 147.5H270V142.5H245V147.5ZM267.5 145V157.5H272.5V145H267.5ZM267.5 157.5V170H272.5V157.5H267.5ZM270 172.5H307.5V167.5H270V172.5ZM307.5 172.5H345V167.5H307.5V172.5ZM347.5 170V145H342.5V170H347.5ZM347.5 145V120H342.5V145H347.5ZM345 117.5H295V122.5H345V117.5ZM295 117.5H245V122.5H295V117.5ZM247.5 120V107.5H242.5V120H247.5ZM247.5 107.5V95H242.5V107.5H247.5ZM245 92.5H232.5V97.5H245V92.5ZM232.5 92.5H220V97.5H232.5V92.5ZM222.5 95V70H217.5V95H222.5ZM222.5 70V45H217.5V70H222.5ZM220 47.5H232.5V42.5H220V47.5ZM232.5 47.5H245V42.5H232.5V47.5ZM247.5 45V32.5H242.5V45H247.5ZM445 20V17.5H442.5V20H445ZM545 20H547.5V17.5H545V20ZM545 45H542.5V47.5H545V45ZM570 45H572.5V42.5H570V45ZM570 70V72.5H572.5V70H570ZM520 70H517.5V72.5H520V70ZM520 45H522.5V42.5H520V45ZM470 45V42.5H467.5V45H470ZM470 95H467.5V97.5H470V95ZM570 95H572.5V92.5H570V95ZM570 120H567.5V122.5H570V120ZM595 120H597.5V117.5H595V120ZM595 170V172.5H597.5V170H595ZM570 170V167.5H567.5V170H570ZM570 195V197.5H572.5V195H570ZM445 195H442.5V197.5H445V195ZM445 170H447.5V167.5H445V170ZM420 170H417.5V172.5H420V170ZM420 145V142.5H417.5V145H420ZM470 145H472.5V142.5H470V145ZM470 170H467.5V172.5H470V170ZM545 170V172.5H547.5V170H545ZM545 120H547.5V117.5H545V120ZM445 120H442.5V122.5H445V120ZM445 95H447.5V92.5H445V95ZM420 95H417.5V97.5H420V95ZM420 45V42.5H417.5V45H420ZM445 45V47.5H447.5V45H445ZM447.5 32.5V20H442.5V32.5H447.5ZM445 22.5H495V17.5H445V22.5ZM495 22.5H545V17.5H495V22.5ZM542.5 20V32.5H547.5V20H542.5ZM542.5 32.5V45H547.5V32.5H542.5ZM545 47.5H557.5V42.5H545V47.5ZM557.5 47.5H570V42.5H557.5V47.5ZM567.5 45V57.5H572.5V45H567.5ZM567.5 57.5V70H572.5V57.5H567.5ZM570 67.5H545V72.5H570V67.5ZM545 67.5H520V72.5H545V67.5ZM522.5 70V57.5H517.5V70H522.5ZM522.5 57.5V45H517.5V57.5H522.5ZM520 42.5H495V47.5H520V42.5ZM495 42.5H470V47.5H495V42.5ZM467.5 45V70H472.5V45H467.5ZM467.5 70V95H472.5V70H467.5ZM470 97.5H520V92.5H470V97.5ZM520 97.5H570V92.5H520V97.5ZM567.5 95V107.5H572.5V95H567.5ZM567.5 107.5V120H572.5V107.5H567.5ZM570 122.5H582.5V117.5H570V122.5ZM582.5 122.5H595V117.5H582.5V122.5ZM592.5 120V145H597.5V120H592.5ZM592.5 145V170H597.5V145H592.5ZM595 167.5H582.5V172.5H595V167.5ZM582.5 167.5H570V172.5H582.5V167.5ZM567.5 170V182.5H572.5V170H567.5ZM567.5 182.5V195H572.5V182.5H567.5ZM570 192.5H507.5V197.5H570V192.5ZM507.5 192.5H445V197.5H507.5V192.5ZM447.5 195V182.5H442.5V195H447.5ZM447.5 182.5V170H442.5V182.5H447.5ZM445 167.5H432.5V172.5H445V167.5ZM432.5 167.5H420V172.5H432.5V167.5ZM422.5 170V157.5H417.5V170H422.5ZM422.5 157.5V145H417.5V157.5H422.5ZM420 147.5H445V142.5H420V147.5ZM445 147.5H470V142.5H445V147.5ZM467.5 145V157.5H472.5V145H467.5ZM467.5 157.5V170H472.5V157.5H467.5ZM470 172.5H507.5V167.5H470V172.5ZM507.5 172.5H545V167.5H507.5V172.5ZM547.5 170V145H542.5V170H547.5ZM547.5 145V120H542.5V145H547.5ZM545 117.5H495V122.5H545V117.5ZM495 117.5H445V122.5H495V117.5ZM447.5 120V107.5H442.5V120H447.5ZM447.5 107.5V95H442.5V107.5H447.5ZM445 92.5H432.5V97.5H445V92.5ZM432.5 92.5H420V97.5H432.5V92.5ZM422.5 95V70H417.5V95H422.5ZM422.5 70V45H417.5V70H422.5ZM420 47.5H432.5V42.5H420V47.5ZM432.5 47.5H445V42.5H432.5V47.5ZM447.5 45V32.5H442.5V45H447.5ZM620 20V17.5H617.5V20H620ZM770 20H772.5V17.5H770V20ZM770 45H767.5V47.5H770V45ZM795 45H797.5V42.5H795V45ZM795 95V97.5H797.5V95H795ZM770 95V92.5H767.5V95H770ZM770 120H767.5V122.5H770V120ZM795 120H797.5V117.5H795V120ZM795 170V172.5H797.5V170H795ZM770 170V167.5H767.5V170H770ZM770 195V197.5H772.5V195H770ZM620 195H617.5V197.5H620V195ZM745 45H747.5V42.5H745V45ZM670 45V42.5H667.5V45H670ZM670 95H667.5V97.5H670V95ZM745 95V97.5H747.5V95H745ZM745 120H747.5V117.5H745V120ZM670 120V117.5H667.5V120H670ZM670 170H667.5V172.5H670V170ZM745 170V172.5H747.5V170H745ZM622.5 107.5V20H617.5V107.5H622.5ZM620 22.5H695V17.5H620V22.5ZM695 22.5H770V17.5H695V22.5ZM767.5 20V32.5H772.5V20H767.5ZM767.5 32.5V45H772.5V32.5H767.5ZM770 47.5H782.5V42.5H770V47.5ZM782.5 47.5H795V42.5H782.5V47.5ZM792.5 45V70H797.5V45H792.5ZM792.5 70V95H797.5V70H792.5ZM795 92.5H782.5V97.5H795V92.5ZM782.5 92.5H770V97.5H782.5V92.5ZM767.5 95V107.5H772.5V95H767.5ZM767.5 107.5V120H772.5V107.5H767.5ZM770 122.5H782.5V117.5H770V122.5ZM782.5 122.5H795V117.5H782.5V122.5ZM792.5 120V145H797.5V120H792.5ZM792.5 145V170H797.5V145H792.5ZM795 167.5H782.5V172.5H795V167.5ZM782.5 167.5H770V172.5H782.5V167.5ZM767.5 170V182.5H772.5V170H767.5ZM767.5 182.5V195H772.5V182.5H767.5ZM770 192.5H695V197.5H770V192.5ZM695 192.5H620V197.5H695V192.5ZM622.5 195V107.5H617.5V195H622.5ZM747.5 70V45H742.5V70H747.5ZM745 42.5H707.5V47.5H745V42.5ZM707.5 42.5H670V47.5H707.5V42.5ZM667.5 45V70H672.5V45H667.5ZM667.5 70V95H672.5V70H667.5ZM670 97.5H707.5V92.5H670V97.5ZM707.5 97.5H745V92.5H707.5V97.5ZM747.5 95V70H742.5V95H747.5ZM747.5 145V120H742.5V145H747.5ZM745 117.5H707.5V122.5H745V117.5ZM707.5 117.5H670V122.5H707.5V117.5ZM667.5 120V145H672.5V120H667.5ZM667.5 145V170H672.5V145H667.5ZM670 172.5H707.5V167.5H670V172.5ZM707.5 172.5H745V167.5H707.5V172.5ZM747.5 170V145H742.5V170H747.5Z"
    fill="white" />
  <path
    d="M0 87.5V0H75H150V12.5V25H162.5H175V50V75H162.5H150V87.5V100H162.5H175V125V150H162.5H150V162.5V175H75H0V87.5ZM125 50V25H87.5H50V50V75H87.5H125V50ZM125 125V100H87.5H50V125V150H87.5H125V125ZM225 12.5V0H275H325V12.5V25H337.5H350V37.5V50H325H300V37.5V25H275H250V50V75H300H350V87.5V100H362.5H375V125V150H362.5H350V162.5V175H287.5H225V162.5V150H212.5H200V137.5V125H225H250V137.5V150H287.5H325V125V100H275H225V87.5V75H212.5H200V50V25H212.5H225V12.5ZM425 12.5V0H475H525V12.5V25H537.5H550V37.5V50H525H500V37.5V25H475H450V50V75H500H550V87.5V100H562.5H575V125V150H562.5H550V162.5V175H487.5H425V162.5V150H412.5H400V137.5V125H425H450V137.5V150H487.5H525V125V100H475H425V87.5V75H412.5H400V50V25H412.5H425V12.5ZM600 87.5V0H675H750V12.5V25H762.5H775V50V75H762.5H750V87.5V100H762.5H775V125V150H762.5H750V162.5V175H675H600V87.5ZM725 50V25H687.5H650V50V75H687.5H725V50ZM725 125V100H687.5H650V125V150H687.5H725V125Z"
    fill="white" />
</svg>
  