<svg width="44" height="43" viewBox="0 0 36 30" fill="none" xmlns="http://www.w3.org/2000/svg">
  <path
    d="M5.93925 29.0118V20.31L3.56603 19.1234L1.58834 17.5413L0.401733 10.8171L1.58834 3.69747L3.56603 1.71978V0.928711H32.0447L32.4402 2.11532L34.4179 3.69747H35.209V15.5636L34.0224 17.5413L32.4402 19.1234V19.9145H17.4098L15.8277 21.1011L14.2455 22.6832L12.2678 24.6609L10.6857 26.2431L9.10355 27.4297L8.31247 29.0118H5.93925Z"
    fill="#CDCE32" />
  <rect width="28.9468" height="1.76325" transform="matrix(-1 0 0 1 32.4741 0.195312)" fill="black" />
  <rect width="16.604" height="1.76325" transform="matrix(-1 0 0 1 32.4741 19.2236)" fill="black" />
  <rect width="1.76325" height="1.76325" transform="matrix(-1 0 0 1 34.2371 1.95898)" fill="black" />
  <rect width="1.76325" height="1.76325" transform="matrix(-1 0 0 1 3.52576 1.95898)" fill="black" />
  <rect width="1.76325" height="1.76325" transform="matrix(-1 0 0 1 3.52576 17.4609)" fill="black" />
  <rect width="1.76325" height="1.76325" transform="matrix(-1 0 0 1 5.28955 19.2236)" fill="black" />
  <rect width="1.76325" height="8.81627" transform="matrix(-1 0 0 1 7.05396 19.2236)" fill="black" />
  <rect width="1.76325" height="1.76325" transform="matrix(-1 0 0 1 15.8694 20.9873)" fill="black" />
  <rect width="3.16429" height="3.16429" transform="matrix(-1 0 0 1 27.2982 10.0264)" fill="black" />
  <rect width="3.16429" height="3.16429" transform="matrix(-1 0 0 1 19.3875 10.0264)" fill="black" />
  <rect width="3.16429" height="3.16429" transform="matrix(-1 0 0 1 11.4767 10.0264)" fill="black" />
  <rect width="1.76325" height="1.76325" transform="matrix(-1 0 0 1 14.1064 22.75)" fill="black" />
  <rect width="1.76325" height="1.76325" transform="matrix(-1 0 0 1 12.3435 24.5137)" fill="black" />
  <rect width="1.76325" height="1.76325" transform="matrix(-1 0 0 1 10.5806 26.2764)" fill="black" />
  <rect width="3.52651" height="1.76325" transform="matrix(-1 0 0 1 8.81616 28.04)" fill="black" />
  <rect width="1.76325" height="1.76325" transform="matrix(-1 0 0 1 34.2371 17.4609)" fill="black" />
  <rect width="1.76325" height="13.7387" transform="matrix(-1 0 0 1 36 3.72168)" fill="black" />
  <rect width="1.76325" height="13.7387" transform="matrix(-1 0 0 1 1.76294 3.72168)" fill="black" />
</svg>
  