<svg width="27" height="24" viewBox="0 0 27 24" fill="none" xmlns="http://www.w3.org/2000/svg">
  <path d="M6.48647 4.37877L5.67566 7.29769L6.48647 8.75715L9.08106 11.5139L15.0811 11.3517L22.7027 3.4058L22.5405 1.78418H11.3513L10.8648 2.27067L6.48647 4.37877Z" fill="#FC5C01"/>
  <path d="M18.9729 12.3242H11.3513L3.08105 20.9188L3.40538 22.8648L18.3243 23.0269L22.8648 18.6485V16.3783L18.9729 12.3242Z" fill="#83C501"/>
  <path fill-rule="evenodd" clip-rule="evenodd" d="M26.1818 0H10.9091V2.18182L6.54546 2.18182V4.36364H10.9091V2.18182H21.8182V4.36364L19.6364 4.36364V6.54545H21.8182V4.36364L24 4.36364V2.18182L26.1818 2.18182V0ZM10.9091 8.72727H13.0909V10.9091H10.9091V8.72727ZM6.54544 17.4545H4.36362V19.6364H6.54544V17.4545ZM2.18184 19.6364H4.36365V21.8182H19.6364V24H2.18182H1.90908H0V21.8182H1.90908H2.18182H2.18184V19.6364ZM13.0909 6.54545H15.2727V4.36364H17.4545V6.54545H15.2727V8.72727L17.4545 8.72727V10.9091H15.2727V8.72727L13.0909 8.72727V6.54545ZM8.72728 15.2727H6.54546V17.4545H8.72728V15.2727ZM8.72729 13.0909V15.2727H10.9091V13.0909H13.0909V15.2727H15.2727V13.0909L19.6364 13.0909L19.6364 15.2727H21.8182V13.0909L19.6364 13.0909V10.9091H8.72729V13.0909ZM4.36362 4.36364H6.54544V8.72727H4.36362V4.36364ZM8.72728 8.72727H6.54546V10.9091H8.72728V8.72727ZM19.6364 6.54545H17.4545V8.72727H19.6364V6.54545ZM13.0909 15.2727V17.4545L10.9091 17.4545V19.6364H8.72729V17.4545L10.9091 17.4545V15.2727H13.0909ZM19.6364 19.6364L21.8182 19.6364V15.2727H24V19.6364L21.8182 19.6364V21.8182H19.6364V19.6364Z" fill="black"/>
  </svg>
  