<svg width="32" height="32" viewBox="0 0 32 32" fill="none" xmlns="http://www.w3.org/2000/svg">
<g id="&#229;&#131;&#143;&#231;&#180;&#160;_&#230;&#151;&#151;&#229;&#184;&#156;">
<path id="Vector" d="M19.6923 17.2305H22.1538V19.692H19.6923V17.2305ZM22.1538 17.2305H24.6153V19.692H22.1538V17.2305Z" fill="#FF1A51"/>
<path id="Vector_2" d="M17.2307 17.2305H19.6923V19.692H17.2307V17.2305Z" fill="#F4608A"/>
<path id="Vector_3" d="M24.6154 17.2305H27.0769V19.692H24.6154V17.2305Z" fill="#FF1A51"/>
<path id="Vector_4" d="M17.2307 14.7695H19.6923V17.2311H17.2307V14.7695Z" fill="#F4608A"/>
<path id="Vector_5" d="M22.1538 14.7695H24.6153V17.2311H22.1538V14.7695ZM19.6923 14.7695H22.1538V17.2311H19.6923V14.7695Z" fill="#FF1A51"/>
<path id="Vector_6" d="M14.7693 14.7695H17.2308V17.2311H14.7693V14.7695Z" fill="#AF1441"/>
<path id="Vector_7" d="M12.3077 14.7695H14.7693V17.2311H12.3077V14.7695ZM9.84619 14.7695H12.3077V17.2311H9.84619V14.7695Z" fill="#FF1A51"/>
<path id="Vector_8" d="M7.38464 14.7688H9.84618V17.2303H7.38464V14.7688ZM17.2308 9.8457H19.6923V12.3072H17.2308V9.8457ZM17.2308 12.3072H19.6923V14.7688H17.2308V12.3072Z" fill="#F4608A"/>
<path id="Vector_9" d="M19.6923 9.8457H22.1538V12.3072H19.6923V9.8457ZM22.1538 9.8457H24.6153V12.3072H22.1538V9.8457ZM19.6923 12.3072H22.1538V14.7688H19.6923V12.3072Z" fill="#FF1A51"/>
<path id="Vector_10" d="M14.7693 9.8457H17.2308V12.3072H14.7693V9.8457ZM14.7693 12.3072H17.2308V14.7688H14.7693V12.3072Z" fill="#AF1441"/>
<path id="Vector_11" d="M12.3077 9.8457H14.7693V12.3072H12.3077V9.8457ZM12.3077 12.3072H14.7693V14.7688H12.3077V12.3072ZM9.84619 9.8457H12.3077V12.3072H9.84619V9.8457ZM9.84619 12.3072H12.3077V14.7688H9.84619V12.3072Z" fill="#FF1A51"/>
<path id="Vector_12" d="M7.38464 9.8463H9.84618V12.3078H7.38464V9.8463ZM7.38464 12.3078H9.84618V14.7694H7.38464V12.3078ZM17.2308 7.38477H19.6923V9.8463H17.2308V7.38477Z" fill="#F4608A"/>
<path id="Vector_13" d="M22.1538 7.38477H24.6153V9.8463H22.1538V7.38477ZM19.6923 7.38477H22.1538V9.8463H19.6923V7.38477ZM24.6153 7.38477H27.0769V9.8463H24.6153V7.38477Z" fill="#FF1A51"/>
<path id="Vector_14" d="M14.7693 7.38477H17.2308V9.8463H14.7693V7.38477Z" fill="#AF1441"/>
<path id="Vector_15" d="M12.3077 7.38477H14.7693V9.8463H12.3077V7.38477ZM9.84619 7.38477H12.3077V9.8463H9.84619V7.38477Z" fill="#FF1A51"/>
<path id="Vector_16" d="M7.38464 7.38477H9.84618V9.8463H7.38464V7.38477Z" fill="#F4608A"/>
<path id="Vector_17" d="M14.7693 4.92383H17.2308V7.38537H14.7693V4.92383Z" fill="#AF1441"/>
<path id="Vector_18" d="M12.3077 4.92383H14.7693V7.38537H12.3077V4.92383ZM9.84619 4.92383H12.3077V7.38537H9.84619V4.92383Z" fill="#FF1A51"/>
<path id="Vector_19" d="M7.38464 4.92383H9.84618V7.38537H7.38464V4.92383Z" fill="#F4608A"/>
<path id="Vector_20" d="M14.7692 17.2308H17.2308V19.6923H14.7692V17.2308ZM12.3077 17.2308H14.7692V19.6923H12.3077V17.2308ZM9.84616 17.2308H12.3077V19.6923H9.84616V17.2308ZM7.38463 17.2308H9.84616V19.6923H7.38463V17.2308ZM17.2308 19.6923H19.6923V22.1538H17.2308V19.6923ZM19.6923 19.6923H22.1539V22.1538H19.6923V19.6923ZM22.1539 19.6923H24.6154V22.1538H22.1539V19.6923ZM24.6154 19.6923H27.0769V22.1538H24.6154V19.6923ZM27.0769 19.6923H29.5385V22.1538H27.0769V19.6923ZM27.0769 17.2308H29.5385V19.6923H27.0769V17.2308ZM24.6154 14.7692H27.0769V17.2308H24.6154V14.7692ZM22.1539 12.3077H24.6154V14.7692H22.1539V12.3077ZM24.6154 9.84615H27.0769V12.3077H24.6154V9.84615ZM27.0769 7.38462H29.5385V9.84615H27.0769V7.38462ZM27.0769 4.92308H29.5385V7.38462H27.0769V4.92308ZM24.6154 4.92308H27.0769V7.38462H24.6154V4.92308ZM22.1539 4.92308H24.6154V7.38462H22.1539V4.92308ZM19.6923 4.92308H22.1539V7.38462H19.6923V4.92308ZM17.2308 4.92308H19.6923V7.38462H17.2308V4.92308ZM14.7692 2.46154H17.2308V4.92308H14.7692V2.46154ZM12.3077 2.46154H14.7692V4.92308H12.3077V2.46154ZM9.84616 2.46154H12.3077V4.92308H9.84616V2.46154ZM7.38463 2.46154H9.84616V4.92308H7.38463V2.46154ZM4.92309 29.5385H7.38463V32H4.92309V29.5385ZM4.92309 27.0769H7.38463V29.5385H4.92309V27.0769ZM4.92309 24.6154H7.38463V27.0769H4.92309V24.6154ZM4.92309 22.1538H7.38463V24.6154H4.92309V22.1538ZM4.92309 19.6923H7.38463V22.1538H4.92309V19.6923ZM4.92309 17.2308H7.38463V19.6923H4.92309V17.2308ZM4.92309 14.7692H7.38463V17.2308H4.92309V14.7692ZM4.92309 12.3077H7.38463V14.7692H4.92309V12.3077ZM4.92309 9.84615H7.38463V12.3077H4.92309V9.84615ZM4.92309 7.38462H7.38463V9.84615H4.92309V7.38462ZM4.92309 4.92308H7.38463V7.38462H4.92309V4.92308ZM4.92309 2.46154H7.38463V4.92308H4.92309V2.46154ZM4.92309 0H7.38463V2.46154H4.92309V0ZM2.46155 2.46154H4.92309V4.92308H2.46155V2.46154Z" fill="#1E2028"/>
</g>
</svg>
