<svg t="1701097370098" class="icon" viewBox="0 0 1024 1024" version="1.1" xmlns="http://www.w3.org/2000/svg" p-id="8399" width="200" height="200"><path d="M512 0a512 512 0 1 0 512 512A512 512 0 0 0 512 0z m56.419 588.87v247.336h-117.07V588.871c-142.255-6.247-249.854-34.758-249.854-68.106s107.398-61.758 249.653-68.005v-77.575H267.485V258.216h484.798v116.969H568.42v77.475c143.364 6.044 251.87 34.254 251.87 68.105s-108.506 62.161-251.87 68.106z" fill="#1BA27A" p-id="8400"></path><path d="M568.419 459.208v88.054h-117.07v-87.953c-123.415 5.34-215.8 26.799-215.8 52.49 0 30.224 123.314 53.799 275.444 53.799s275.444-24.079 275.444-53.8c0-25.892-93.494-47.452-218.018-52.59z" fill="#1BA27A" p-id="8401"></path></svg>